<svg id="Layer_1" enable-background="new 0 0 512 512" height="512" viewBox="0 0 512 512" width="512" xmlns="http://www.w3.org/2000/svg"><g><path d="m245.002 16.497c-135.311 0-245.002 109.691-245.002 245.002 0 24.606 3.644 48.359 10.393 70.766l105.107 137.231c37.574 23.444 81.951 37.005 129.502 37.005 135.311 0 245.002-109.691 245.002-245.002s-109.691-245.002-245.002-245.002z" fill="#ffdd40"/><g><path d="m322.622 233.095c9.379 7.284 20.954 11.24 32.875 11.24s23.496-3.956 32.875-11.24c6.952-5.398 14.37-12.746 20.86-22.004-1.738-.502-3.496-.977-5.274-1.422-2.012-.504-3.779-1.714-4.92-3.324-5.261-7.422-6.719-18.897-7.005-27.218-3.691 4.299-7.564 7.894-11.265 10.768-14.842 11.526-35.72 11.511-50.543 0-3.701-2.874-7.574-6.469-11.265-10.768-.293 8.506-1.807 20.308-7.359 27.708-.948 1.262-2.407 2.294-4.157 2.728-1.915.474-3.809.985-5.684 1.527 6.491 9.258 13.91 16.607 20.862 22.005z" fill="#fcad6d"/><path d="m337.417 241.195c12.006-12.712 16.087-30.67 17.446-42.674-8.718-.133-17.399-3.005-24.637-8.626-3.701-2.874-7.574-6.469-11.265-10.768-.293 8.506-1.807 20.308-7.359 27.708-.947 1.262-2.407 2.294-4.157 2.728-1.915.474-3.809.985-5.684 1.527 6.491 9.259 13.909 16.608 20.861 22.006 4.494 3.49 9.496 6.206 14.795 8.099z" fill="#fd995b"/></g><path d="m507.931 274.586c-6.321-20.544-20.273-40.592-50.425-43.056-4.714-.385-7.223-2.214-12.78-5.348-11.574-6.527-23.56-11.733-36.619-15.394-6.378 9.168-13.698 16.43-20.552 21.752-9.146 7.103-20.434 10.961-32.058 10.961-11.625 0-22.912-3.858-32.058-10.961-6.855-5.323-14.177-12.587-20.556-21.758-13.005 3.652-25.073 8.891-36.616 15.4-5.557 3.133-8.065 4.962-12.78 5.348-30.152 2.465-44.103 22.512-50.424 43.056-2.812 9.139-4.069 18.685-4.069 28.246v50.423h75.001c12.92-36.388 47.678-62.523 88.44-62.523s75.52 26.135 88.441 62.523h41.115c11.05 0 20.009-8.958 20.009-20.008v-30.414c0-9.562-1.258-19.108-4.069-28.247z" fill="#ff4155"/><path d="m450.876 353.255h21.649c0-13.431 0-33.097 0-43.826 0-8.499-5.45-14.113-11.005-17.628-5.06-3.202-11.662.4-11.662 6.388v52.368c.35.894.696 1.79 1.018 2.698z" fill="#e80054"/><path d="m322.608 251.73c6.262-2.796 11.331-6.701 15.442-11.223-5.236-1.848-10.177-4.522-14.612-7.966-6.855-5.323-14.177-12.587-20.556-21.758-13.005 3.652-25.073 8.891-36.616 15.4-5.557 3.133-8.065 4.962-12.78 5.347-30.152 2.465-44.103 22.512-50.424 43.056-2.812 9.139-4.069 18.685-4.069 28.246v50.423h64.994c1.263-6.924 1.959-14.146 1.959-21.438.001-64.579 21.579-64.421 56.662-80.087z" fill="#e80054"/><g><path d="m138.796 317.61c11.856 9.207 26.487 14.207 41.556 14.207 15.068 0 29.699-5.001 41.555-14.207 8.788-6.824 18.164-16.112 26.368-27.815-2.198-.634-4.419-1.235-6.667-1.798-2.543-.637-4.777-2.167-6.22-4.202-6.65-9.382-8.492-23.886-8.854-34.405-4.665 5.434-9.561 9.978-14.239 13.611-18.761 14.57-45.152 14.551-63.888 0-4.678-3.633-9.574-8.178-14.239-13.611-.371 10.752-2.285 25.671-9.303 35.024-1.198 1.596-3.042 2.9-5.254 3.448-2.421.6-4.815 1.245-7.185 1.93 8.205 11.704 17.582 20.993 26.37 27.818z" fill="#fcad6d"/></g><path d="m179.991 273.915c-11.167-.077-22.313-3.713-31.584-10.913-4.678-3.633-9.574-8.178-14.239-13.611-.371 10.752-2.285 25.67-9.303 35.024-1.198 1.596-3.042 2.9-5.254 3.448-2.421.6-4.815 1.245-7.185 1.93 8.205 11.704 17.582 20.993 26.37 27.817 4.765 3.701 9.984 6.708 15.494 8.998 19.461-16.587 24.464-39.944 25.701-52.693z" fill="#fd995b"/><path d="m268.605 384.563c0-28.424 12.721-53.917 32.749-71.138-2.339-1.123-4.827-2.645-8.213-4.553-14.631-8.25-29.781-14.83-46.289-19.458-8.063 11.589-17.315 20.769-25.978 27.496-11.562 8.978-25.829 13.854-40.523 13.854-14.695 0-28.962-4.876-40.523-13.854-8.665-6.729-17.92-15.911-25.983-27.504-16.439 4.616-31.693 11.239-46.284 19.466-7.024 3.96-10.195 6.272-16.154 6.76-17.749 1.451-31.053 7.725-41.014 16.634 17.323 57.506 55.203 106.093 105.107 137.23h207.109c-31.877-15.008-54.004-47.429-54.004-84.933z" fill="#3c58a0"/><path d="m155.218 325.8c-5.477-2.247-10.662-5.219-15.39-8.891-8.665-6.729-17.92-15.911-25.983-27.504-16.439 4.616-31.693 11.239-46.284 19.466-7.024 3.96-10.195 6.272-16.154 6.76-17.749 1.451-31.053 7.725-41.014 16.634 7.775 25.811 19.703 49.817 34.99 71.264 6.736-60.402 52.068-47.415 93.143-66.799 6.529-3.082 12.037-6.813 16.692-10.93z" fill="#2a428c"/><ellipse cx="362.436" cy="384.563" fill="#73c3f9" rx="96.258" ry="96.258" transform="matrix(.707 -.707 .707 .707 -165.772 368.917)"/><g><g><path d="m164.905 30.881c-46.383 6.32-50.791 32.618-50.812 42.266-.005 2.023-1.125 3.899-2.945 4.784-24.127 11.737-11.119 68.304-11.119 68.304 2.423.162 6.057 2.241 7.948 3.157.463-2.882 1.219-5.72 2.287-8.463.814-2.09 1.831-4.202 3.102-6.197 2.207-3.461 3.211-7.545 2.911-11.627-.867-11.801-1.547-33.957 14.03-40.965 13.196-5.938 29.384-2.5 39.708.933 6.704 2.229 13.966 2.229 20.67 0 10.323-3.433 26.511-6.871 39.707-.933 15.533 6.989 14.895 29.032 14.037 40.864-.298 4.114.68 8.239 2.903 11.728 1.313 2.059 2.354 4.243 3.181 6.399 1.027 2.681 1.758 5.45 2.21 8.262 2.384-1.155 6.89-3.511 9.805-3.099.357-12.369 1.499-25.703 1.499-25.703 13.748-67.323-49.18-96.515-99.122-89.71z" fill="#2a428c"/><path d="m164.905 30.881c-46.383 6.32-50.791 32.618-50.812 42.266-.005 2.023-1.125 3.899-2.945 4.784-24.127 11.737-11.119 68.304-11.119 68.304 2.423.162 6.057 2.241 7.948 3.157.463-2.882 1.219-5.72 2.287-8.463.814-2.09 1.831-4.202 3.102-6.197 2.207-3.461 3.211-7.545 2.912-11.627-.867-11.801-1.548-33.957 14.03-40.965 13.196-5.938 29.384-2.5 39.707.933 2.824.939 5.748 1.458 8.686 1.606-.45-.772-.931-1.539-1.469-2.295-19.898-27.968 7.761-48.348 13.099-51.909-8.559-.854-17.17-.719-25.426.406z" fill="#1c2e7a"/></g><path d="m266.645 147.899c-3.613-3.311-10.809-1.633-13.92.395.682 4.245.721 8.587.132 12.875l-3.672 26.742c0 2.156-.068 4.271-.193 6.349 8.953 2.701 13.401-5.337 14.15-10.853.323-2.374.85-4.715 1.581-6.998 2.382-7.44 10.974-20.215 1.922-28.51z" fill="#fcad6d"/><path d="m94.057 147.899c3.613-3.311 10.809-1.633 13.92.395-.682 4.245-.721 8.587-.132 12.875l3.672 26.742c0 2.156.068 4.271.193 6.349-8.953 2.701-13.4-5.337-14.15-10.853-.323-2.374-.85-4.715-1.581-6.998-2.381-7.44-10.973-20.215-1.922-28.51z" fill="#fd995b"/><path d="m251.613 140.032c-.826-2.156-1.868-4.34-3.181-6.399-2.223-3.488-3.201-7.614-2.903-11.728.857-11.832.397-34.973-15.135-41.962-13.196-5.938-29.383-2.5-39.706.933-6.704 2.229-13.97 2.229-20.674 0-10.323-3.433-26.51-6.87-39.706-.933-15.577 7.009-15.995 30.262-15.128 42.063.3 4.082-.705 8.166-2.911 11.627-1.271 1.995-2.289 4.106-3.102 6.197-2.639 6.78-3.409 14.133-2.42 21.333l3.672 26.747c0 38.454 20.527 64.59 37.987 78.149 9.114 7.077 20.361 10.922 31.944 10.922 11.584 0 22.831-3.844 31.944-10.922 17.46-13.559 37.987-39.696 37.987-78.149l3.672-26.742c.981-7.128.239-14.409-2.34-21.136z" fill="#f9ba8f"/><g><path d="m199.402 266.059c-17.46-13.559-37.987-39.696-37.987-78.149l-3.672-26.747c-.989-7.2-.219-14.553 2.42-21.333.814-2.09 1.831-4.202 3.102-6.197 2.207-3.462 3.211-7.545 2.911-11.627-.784-10.67-.515-30.701 11.058-39.623-2.443-.233-4.866-.725-7.219-1.507-10.323-3.433-26.51-6.87-39.706-.933-15.577 7.009-15.995 30.262-15.128 42.063.3 4.082-.705 8.166-2.911 11.627-1.271 1.995-2.289 4.107-3.102 6.197-2.639 6.78-3.409 14.133-2.42 21.333l3.672 26.747c0 38.454 20.527 64.59 37.987 78.149 9.114 7.077 20.361 10.922 31.944 10.922 8.982 0 17.758-2.321 25.497-6.659-2.241-1.257-4.4-2.673-6.446-4.263z" fill="#fcad6d"/></g></g><g><g><path d="m343.277 6.261c-36.694 5-40.182 25.804-40.198 33.437-.004 1.601-.89 3.084-2.33 3.785-19.087 9.285-8.796 54.036-8.796 54.036 1.917.128 4.792 1.773 6.288 2.498.366-2.28.965-4.526 1.809-6.696.644-1.654 1.448-3.324 2.454-4.902 1.746-2.738 2.541-5.969 2.303-9.199-.686-9.336-1.224-26.863 11.099-32.408 10.44-4.698 23.246-1.978 31.413.738 5.304 1.764 11.049 1.764 16.353 0 8.167-2.716 20.973-5.436 31.413-.738 12.288 5.529 11.783 22.968 11.105 32.328-.236 3.254.538 6.518 2.297 9.278 1.039 1.629 1.862 3.356 2.517 5.062.813 2.121 1.391 4.311 1.748 6.536 1.886-.914 5.451-2.778 7.757-2.452.282-9.785 1.186-20.334 1.186-20.334 10.875-53.258-38.908-76.352-78.418-70.969z" fill="#2a428c"/><path d="m343.277 6.261c-36.694 5-40.182 25.804-40.198 33.437-.004 1.601-.89 3.084-2.33 3.785-19.087 9.285-8.796 54.036-8.796 54.036 1.917.128 4.792 1.773 6.288 2.498.366-2.28.965-4.526 1.809-6.696.644-1.654 1.448-3.324 2.454-4.902 1.746-2.738 2.541-5.969 2.303-9.199-.686-9.336-1.224-26.863 11.099-32.408 10.44-4.698 23.246-1.978 31.413.738 2.234.743 4.547 1.154 6.872 1.271-.356-.611-.736-1.218-1.162-1.816-15.742-22.126 6.14-38.248 10.363-41.066-6.771-.675-13.583-.568-20.115.322z" fill="#1c2e7a"/></g><path d="m423.765 98.835c-2.858-2.619-8.551-1.292-11.012.312.539 3.358.57 6.793.104 10.186l-2.905 21.156c0 1.705-.054 3.378-.152 5.022 7.083 2.136 10.601-4.222 11.194-8.586.255-1.878.672-3.73 1.251-5.537 1.884-5.884 8.681-15.991 1.52-22.553z" fill="#fcad6d"/><path d="m287.229 98.835c2.858-2.619 8.551-1.292 11.012.312-.539 3.358-.57 6.793-.104 10.186l2.905 21.156c0 1.705.054 3.378.153 5.022-7.083 2.136-10.601-4.222-11.194-8.586-.255-1.878-.672-3.73-1.251-5.537-1.885-5.884-8.682-15.991-1.521-22.553z" fill="#fd995b"/><path d="m411.873 92.611c-.654-1.706-1.478-3.433-2.516-5.062-1.759-2.759-2.533-6.024-2.297-9.278.678-9.36.314-27.668-11.974-33.197-10.439-4.697-23.245-1.978-31.412.738-5.304 1.764-11.051 1.764-16.355 0-8.167-2.716-20.972-5.435-31.412-.738-12.323 5.545-12.654 23.941-11.968 33.277.237 3.23-.558 6.46-2.303 9.199-1.006 1.578-1.811 3.249-2.454 4.902-2.088 5.364-2.697 11.181-1.914 16.877l2.905 21.16c0 30.421 16.239 51.098 30.052 61.825 7.21 5.599 16.108 8.64 25.271 8.64 9.164 0 18.062-3.041 25.272-8.64 13.813-10.727 30.052-31.404 30.052-61.825l2.905-21.156c.775-5.64.188-11.4-1.852-16.722z" fill="#f9ba8f"/><g><path d="m370.568 192.314c-13.813-10.727-30.052-31.404-30.052-61.825l-2.905-21.16c-.782-5.696-.174-11.513 1.914-16.877.644-1.654 1.448-3.324 2.454-4.902 1.746-2.739 2.54-5.969 2.303-9.199-.62-8.441-.407-24.288 8.748-31.347-1.932-.185-3.85-.573-5.711-1.192-8.167-2.716-20.972-5.435-31.412-.738-12.323 5.545-12.654 23.941-11.968 33.277.237 3.23-.558 6.46-2.303 9.199-1.006 1.578-1.811 3.249-2.454 4.902-2.088 5.364-2.697 11.181-1.914 16.877l2.905 21.16c0 30.421 16.239 51.098 30.052 61.825 7.21 5.599 16.108 8.64 25.272 8.64 7.106 0 14.048-1.836 20.171-5.268-1.773-.994-3.481-2.115-5.1-3.372z" fill="#fcad6d"/></g></g><path d="m420.312 461.48c-47.21-8.25-43.739-47.531-43.739-47.531l-18.899-72.084c-31.836-13.525-16.232-51.224-16.217-51.26-43.072 9.575-75.279 48.002-75.279 93.958 0 53.162 43.096 96.258 96.258 96.258 21.725 0 41.767-7.201 57.876-19.341z" fill="#4fabf7"/><path d="m391.822 370.426h-13.373c-1.036 0-1.875-.84-1.875-1.875v-13.374c0-7.808-6.329-14.137-14.137-14.137-7.808 0-14.137 6.329-14.137 14.137v13.374c0 1.036-.84 1.875-1.875 1.875h-13.375c-7.808 0-14.137 6.329-14.137 14.137 0 7.807 6.329 14.137 14.137 14.137h13.374c1.036 0 1.875.84 1.875 1.875v13.374c0 7.807 6.329 14.137 14.137 14.137 7.807 0 14.137-6.329 14.137-14.137v-13.374c0-1.036.84-1.875 1.875-1.875h13.373c7.807 0 14.137-6.329 14.137-14.137 0-7.807-6.329-14.137-14.136-14.137z" fill="#e9efff"/><path d="m366.163 384.563c0-7.808 6.329-14.137 14.137-14.137h-1.852c-1.036 0-1.875-.84-1.875-1.875v-13.374c0-7.807-6.329-14.137-14.137-14.137-7.808 0-14.137 6.329-14.137 14.137v13.374c0 1.035-.84 1.875-1.875 1.875h-13.374c-7.808 0-14.137 6.329-14.137 14.137s6.329 14.137 14.137 14.137h13.374c1.036 0 1.875.84 1.875 1.875v13.374c0 7.807 6.329 14.137 14.137 14.137 7.807 0 14.137-6.329 14.137-14.137v-13.374c0-1.036.84-1.875 1.875-1.875h1.852c-7.808 0-14.137-6.329-14.137-14.137z" fill="#bec8f7"/></g></svg>